<svg width="24" height="24" viewBox="0 0 24 24" fill="none" xmlns="http://www.w3.org/2000/svg">
<path opacity="0.4" d="M12 22C17.5228 22 22 17.5228 22 12C22 6.47715 17.5228 2 12 2C6.47715 2 2 6.47715 2 12C2 17.5228 6.47715 22 12 22Z" fill="#7DB7FF"/>
<path d="M15.53 10.97L12.53 7.97C12.24 7.68 11.76 7.68 11.47 7.97L8.47 10.97C8.18 11.26 8.18 11.74 8.47 12.03C8.76 12.32 9.24 12.32 9.53 12.03L11.25 10.31V15.5C11.25 15.91 11.59 16.25 12 16.25C12.41 16.25 12.75 15.91 12.75 15.5V10.31L14.47 12.03C14.62 12.18 14.81 12.25 15 12.25C15.19 12.25 15.38 12.18 15.53 12.03C15.82 11.74 15.82 11.26 15.53 10.97Z" fill="#7DB7FF"/>
</svg>
