<svg width="50" height="50" viewBox="0 0 50 50" fill="none" xmlns="http://www.w3.org/2000/svg">
<mask id="path-1-inside-1_2475_2638" fill="white">
<path d="M50 25C50 38.8071 38.8071 50 25 50C11.1929 50 0 38.8071 0 25C0 11.1929 11.1929 0 25 0C38.8071 0 50 11.1929 50 25ZM9.7567 25C9.7567 33.4186 16.5814 40.2433 25 40.2433C33.4186 40.2433 40.2433 33.4186 40.2433 25C40.2433 16.5814 33.4186 9.7567 25 9.7567C16.5814 9.7567 9.7567 16.5814 9.7567 25Z"/>
</mask>
<path d="M50 25C50 38.8071 38.8071 50 25 50C11.1929 50 0 38.8071 0 25C0 11.1929 11.1929 0 25 0C38.8071 0 50 11.1929 50 25ZM9.7567 25C9.7567 33.4186 16.5814 40.2433 25 40.2433C33.4186 40.2433 40.2433 33.4186 40.2433 25C40.2433 16.5814 33.4186 9.7567 25 9.7567C16.5814 9.7567 9.7567 16.5814 9.7567 25Z" stroke="white" stroke-width="24" stroke-dasharray="13 13" mask="url(#path-1-inside-1_2475_2638)"/>
</svg>
