<svg width="204" height="50" viewBox="0 0 204 50" fill="none" xmlns="http://www.w3.org/2000/svg">
<path d="M61.9 11.1094H69.6344C71.6552 11.1094 73.426 11.3906 74.9469 11.9531C76.4781 12.5052 77.7542 13.2604 78.775 14.2188C79.7958 15.1771 80.5615 16.3073 81.0719 17.6094C81.5927 18.9115 81.8531 20.3021 81.8531 21.7812C81.8531 22.7396 81.7438 23.7083 81.525 24.6875C81.3063 25.6562 80.9677 26.5938 80.5094 27.5C80.0615 28.4062 79.4938 29.2552 78.8063 30.0469C78.1188 30.8385 77.301 31.526 76.3531 32.1094C75.4156 32.6927 74.3427 33.1562 73.1344 33.5C71.9365 33.8333 70.6031 34 69.1344 34H61.9V11.1094ZM64.9625 31.5781H69.6969C71.2073 31.5781 72.525 31.3385 73.65 30.8594C74.775 30.3698 75.7021 29.7135 76.4313 28.8906C77.1708 28.0573 77.7229 27.0885 78.0875 25.9844C78.4521 24.8698 78.6344 23.6823 78.6344 22.4219C78.6344 21.0469 78.4208 19.8125 77.9938 18.7188C77.5771 17.6146 76.9625 16.6823 76.15 15.9219C75.3479 15.151 74.3531 14.5625 73.1656 14.1562C71.9885 13.7396 70.6448 13.5312 69.1344 13.5312H64.9625V31.5781ZM92.6688 31.5312C92.4083 31.75 92.0906 32.0208 91.7156 32.3438C91.351 32.6562 90.9344 32.9583 90.4656 33.25C90.0073 33.5417 89.5021 33.7917 88.95 34C88.4083 34.2083 87.8302 34.3125 87.2156 34.3125C86.6635 34.3125 86.1219 34.2135 85.5906 34.0156C85.0698 33.8281 84.6063 33.5469 84.2 33.1719C83.7938 32.7865 83.4656 32.3125 83.2156 31.75C82.976 31.1875 82.8563 30.5417 82.8563 29.8125C82.8563 29.3646 82.9083 28.9115 83.0125 28.4531C83.1271 27.9948 83.3146 27.5573 83.575 27.1406C83.8354 26.7135 84.174 26.3177 84.5906 25.9531C85.0177 25.5781 85.5385 25.2552 86.1531 24.9844C86.7781 24.7031 87.5125 24.4844 88.3563 24.3281C89.2 24.1719 90.1688 24.0938 91.2625 24.0938H92.6688V22.6562C92.6688 22.1771 92.5854 21.7448 92.4188 21.3594C92.2521 20.974 92.0177 20.6458 91.7156 20.375C91.424 20.0938 91.0698 19.8802 90.6531 19.7344C90.2469 19.5781 89.7938 19.5 89.2938 19.5C88.9188 19.5 88.5177 19.5417 88.0906 19.625C87.674 19.7083 87.2521 19.8281 86.825 19.9844C86.4083 20.1406 86.0073 20.3229 85.6219 20.5312C85.2365 20.7396 84.8979 20.9688 84.6063 21.2188L84.325 21.0625L83.7 18.7812C84.3042 18.4479 84.8875 18.1771 85.45 17.9688C86.0125 17.75 86.549 17.5781 87.0594 17.4531C87.5802 17.3281 88.075 17.2448 88.5438 17.2031C89.0125 17.151 89.4604 17.125 89.8875 17.125C91.8354 17.125 93.2781 17.5312 94.2156 18.3438C95.1635 19.1458 95.6375 20.3542 95.6375 21.9688V30.125C95.6375 30.2604 95.6479 30.4271 95.6688 30.625C95.6896 30.8125 95.7365 30.9948 95.8094 31.1719C95.8927 31.349 96.0073 31.5 96.1531 31.625C96.3094 31.75 96.5177 31.8125 96.7781 31.8125C96.924 31.8125 97.1167 31.7917 97.3563 31.75C97.5958 31.6979 97.8354 31.6146 98.075 31.5V33.1562C97.575 33.5 97.0698 33.7812 96.5594 34C96.0594 34.2083 95.575 34.3125 95.1063 34.3125C94.6792 34.3125 94.325 34.224 94.0438 34.0469C93.7729 33.8802 93.5438 33.6615 93.3563 33.3906C93.1792 33.1198 93.0385 32.8229 92.9344 32.5C92.8302 32.1667 92.7417 31.8438 92.6688 31.5312ZM92.6688 25.9062H91.4813C90.2625 25.9062 89.2885 25.9948 88.5594 26.1719C87.8406 26.3385 87.2885 26.5677 86.9031 26.8594C86.5281 27.1406 86.2781 27.4688 86.1531 27.8438C86.0385 28.2188 85.9813 28.6094 85.9813 29.0156C85.9813 29.4531 86.0438 29.8438 86.1688 30.1875C86.2938 30.5312 86.4656 30.8281 86.6844 31.0781C86.9135 31.3177 87.1844 31.5 87.4969 31.625C87.8094 31.75 88.1479 31.8125 88.5125 31.8125C88.7938 31.8125 89.0802 31.7812 89.3719 31.7188C89.674 31.6458 89.9917 31.526 90.325 31.3594C90.6688 31.1823 91.0281 30.9479 91.4031 30.6562C91.7885 30.3646 92.2104 29.9896 92.6688 29.5312V25.9062ZM99.6406 19.8125H96.2969L96.5469 18.2812C97.3594 18.1146 98.0104 17.9062 98.5 17.6562C98.9896 17.3958 99.3906 17.0729 99.7031 16.6875C100.026 16.3021 100.292 15.8385 100.5 15.2969C100.719 14.7448 100.964 14.0885 101.234 13.3281H102.609V17.4375H108.609L107.984 19.8125H102.609V29.0625C102.609 29.5625 102.682 29.9896 102.828 30.3438C102.984 30.6875 103.198 30.9688 103.469 31.1875C103.74 31.4062 104.068 31.5677 104.453 31.6719C104.839 31.7656 105.266 31.8125 105.734 31.8125C106.214 31.8125 106.688 31.7708 107.156 31.6875C107.635 31.5938 108.089 31.4688 108.516 31.3125V33C107.859 33.4271 107.167 33.7552 106.438 33.9844C105.719 34.2031 104.984 34.3125 104.234 34.3125C103.536 34.3125 102.906 34.2135 102.344 34.0156C101.781 33.8177 101.297 33.5312 100.891 33.1562C100.495 32.7812 100.188 32.3177 99.9688 31.7656C99.75 31.2031 99.6406 30.5625 99.6406 29.8438V19.8125ZM118.831 31.5312C118.571 31.75 118.253 32.0208 117.878 32.3438C117.514 32.6562 117.097 32.9583 116.628 33.25C116.17 33.5417 115.665 33.7917 115.113 34C114.571 34.2083 113.993 34.3125 113.378 34.3125C112.826 34.3125 112.284 34.2135 111.753 34.0156C111.232 33.8281 110.769 33.5469 110.363 33.1719C109.956 32.7865 109.628 32.3125 109.378 31.75C109.139 31.1875 109.019 30.5417 109.019 29.8125C109.019 29.3646 109.071 28.9115 109.175 28.4531C109.29 27.9948 109.477 27.5573 109.738 27.1406C109.998 26.7135 110.336 26.3177 110.753 25.9531C111.18 25.5781 111.701 25.2552 112.316 24.9844C112.941 24.7031 113.675 24.4844 114.519 24.3281C115.363 24.1719 116.331 24.0938 117.425 24.0938H118.831V22.6562C118.831 22.1771 118.748 21.7448 118.581 21.3594C118.415 20.974 118.18 20.6458 117.878 20.375C117.586 20.0938 117.232 19.8802 116.816 19.7344C116.409 19.5781 115.956 19.5 115.456 19.5C115.081 19.5 114.68 19.5417 114.253 19.625C113.836 19.7083 113.415 19.8281 112.988 19.9844C112.571 20.1406 112.17 20.3229 111.784 20.5312C111.399 20.7396 111.06 20.9688 110.769 21.2188L110.488 21.0625L109.863 18.7812C110.467 18.4479 111.05 18.1771 111.613 17.9688C112.175 17.75 112.711 17.5781 113.222 17.4531C113.743 17.3281 114.238 17.2448 114.706 17.2031C115.175 17.151 115.623 17.125 116.05 17.125C117.998 17.125 119.441 17.5312 120.378 18.3438C121.326 19.1458 121.8 20.3542 121.8 21.9688V30.125C121.8 30.2604 121.81 30.4271 121.831 30.625C121.852 30.8125 121.899 30.9948 121.972 31.1719C122.055 31.349 122.17 31.5 122.316 31.625C122.472 31.75 122.68 31.8125 122.941 31.8125C123.086 31.8125 123.279 31.7917 123.519 31.75C123.758 31.6979 123.998 31.6146 124.238 31.5V33.1562C123.738 33.5 123.232 33.7812 122.722 34C122.222 34.2083 121.738 34.3125 121.269 34.3125C120.842 34.3125 120.488 34.224 120.206 34.0469C119.935 33.8802 119.706 33.6615 119.519 33.3906C119.342 33.1198 119.201 32.8229 119.097 32.5C118.993 32.1667 118.904 31.8438 118.831 31.5312ZM118.831 25.9062H117.644C116.425 25.9062 115.451 25.9948 114.722 26.1719C114.003 26.3385 113.451 26.5677 113.066 26.8594C112.691 27.1406 112.441 27.4688 112.316 27.8438C112.201 28.2188 112.144 28.6094 112.144 29.0156C112.144 29.4531 112.206 29.8438 112.331 30.1875C112.456 30.5312 112.628 30.8281 112.847 31.0781C113.076 31.3177 113.347 31.5 113.659 31.625C113.972 31.75 114.31 31.8125 114.675 31.8125C114.956 31.8125 115.243 31.7812 115.534 31.7188C115.836 31.6458 116.154 31.526 116.488 31.3594C116.831 31.1823 117.191 30.9479 117.566 30.6562C117.951 30.3646 118.373 29.9896 118.831 29.5312V25.9062ZM134.775 34H128.431V11.1094H137.306C138.921 11.1094 140.332 11.2865 141.541 11.6406C142.749 11.9844 143.754 12.4792 144.556 13.125C145.358 13.7708 145.957 14.5469 146.353 15.4531C146.759 16.3594 146.963 17.3646 146.963 18.4688C146.963 19.6875 146.749 20.7969 146.322 21.7969C145.895 22.7865 145.301 23.6354 144.541 24.3438C143.78 25.0417 142.884 25.5833 141.853 25.9688C140.822 26.3542 139.707 26.5469 138.509 26.5469C138.332 26.5469 138.16 26.5417 137.994 26.5312C137.838 26.5208 137.66 26.5 137.463 26.4688L137.744 23.0938C137.796 23.1042 137.879 23.1146 137.994 23.125C138.119 23.125 138.223 23.125 138.306 23.125C138.785 23.125 139.186 23.0104 139.509 22.7812C139.832 22.5521 140.093 22.25 140.291 21.875C140.489 21.5 140.629 21.0781 140.713 20.6094C140.796 20.1406 140.838 19.6615 140.838 19.1719C140.838 18.3906 140.749 17.724 140.572 17.1719C140.395 16.6198 140.14 16.1719 139.806 15.8281C139.473 15.4844 139.072 15.2344 138.603 15.0781C138.134 14.9219 137.608 14.8438 137.025 14.8438H134.775V34ZM147.513 17.4375H153.763V27.7188C153.763 28.5208 153.95 29.151 154.325 29.6094C154.71 30.0573 155.2 30.2812 155.794 30.2812C156.2 30.2812 156.596 30.1719 156.981 29.9531C157.377 29.7344 157.773 29.4583 158.169 29.125V17.4375H164.419V34H159.075L158.356 31.3438C157.981 31.6771 157.575 32.0208 157.138 32.375C156.71 32.7188 156.257 33.0365 155.778 33.3281C155.299 33.6094 154.799 33.8438 154.278 34.0312C153.757 34.2188 153.221 34.3125 152.669 34.3125C152.054 34.3125 151.44 34.2031 150.825 33.9844C150.221 33.7552 149.669 33.4115 149.169 32.9531C148.679 32.4844 148.278 31.8958 147.966 31.1875C147.664 30.4688 147.513 29.6146 147.513 28.625V17.4375ZM165.594 8.96875H171.844V34H165.594V8.96875ZM172.769 29.25L173.05 29.0938C173.488 29.3333 173.935 29.5469 174.394 29.7344C174.863 29.9219 175.321 30.0833 175.769 30.2188C176.227 30.3438 176.675 30.4427 177.113 30.5156C177.55 30.5885 177.967 30.625 178.363 30.625C178.779 30.625 179.128 30.5885 179.409 30.5156C179.691 30.4323 179.915 30.3281 180.081 30.2031C180.258 30.0781 180.383 29.9375 180.456 29.7812C180.54 29.6146 180.581 29.4479 180.581 29.2812C180.581 28.9688 180.461 28.7188 180.222 28.5312C179.993 28.3333 179.685 28.1667 179.3 28.0312C178.925 27.8958 178.493 27.776 178.003 27.6719C177.524 27.5677 177.029 27.4427 176.519 27.2969C176.008 27.151 175.508 26.974 175.019 26.7656C174.54 26.5469 174.107 26.2708 173.722 25.9375C173.347 25.5938 173.04 25.1719 172.8 24.6719C172.571 24.1615 172.456 23.5417 172.456 22.8125C172.456 21.9583 172.628 21.1823 172.972 20.4844C173.316 19.7865 173.831 19.1875 174.519 18.6875C175.206 18.1875 176.06 17.8021 177.081 17.5312C178.113 17.2604 179.305 17.125 180.659 17.125C181.014 17.125 181.404 17.1354 181.831 17.1562C182.269 17.1771 182.701 17.2083 183.128 17.25C183.566 17.2917 183.988 17.349 184.394 17.4219C184.8 17.4844 185.154 17.5625 185.456 17.6562L184.613 21.5312L184.331 21.6875C183.529 21.375 182.764 21.151 182.034 21.0156C181.316 20.8802 180.701 20.8125 180.191 20.8125C179.784 20.8125 179.446 20.849 179.175 20.9219C178.904 20.9948 178.685 21.0938 178.519 21.2188C178.363 21.3438 178.248 21.4844 178.175 21.6406C178.113 21.7865 178.081 21.9375 178.081 22.0938C178.081 22.4271 178.196 22.6927 178.425 22.8906C178.665 23.0885 178.972 23.2552 179.347 23.3906C179.732 23.526 180.165 23.6458 180.644 23.75C181.133 23.8542 181.633 23.974 182.144 24.1094C182.654 24.2448 183.149 24.4115 183.628 24.6094C184.118 24.8073 184.55 25.0729 184.925 25.4062C185.31 25.7396 185.618 26.1562 185.847 26.6562C186.086 27.1458 186.206 27.75 186.206 28.4688C186.206 29.2292 186.06 29.9635 185.769 30.6719C185.477 31.3698 185.014 31.9896 184.378 32.5312C183.743 33.0729 182.925 33.5052 181.925 33.8281C180.935 34.151 179.738 34.3125 178.331 34.3125C177.81 34.3125 177.269 34.2865 176.706 34.2344C176.154 34.1927 175.597 34.1198 175.034 34.0156C174.482 33.9219 173.941 33.8021 173.409 33.6562C172.878 33.5104 172.383 33.3333 171.925 33.125L172.769 29.25ZM201.319 32.1562C200.694 32.5938 200.074 32.9531 199.459 33.2344C198.845 33.5156 198.241 33.7344 197.647 33.8906C197.064 34.0469 196.485 34.1562 195.912 34.2188C195.35 34.2812 194.803 34.3125 194.272 34.3125C192.845 34.3125 191.574 34.1354 190.459 33.7812C189.355 33.4167 188.423 32.8958 187.662 32.2188C186.902 31.5417 186.324 30.7135 185.928 29.7344C185.543 28.7552 185.35 27.6406 185.35 26.3906C185.35 24.9219 185.605 23.6146 186.116 22.4688C186.636 21.3229 187.329 20.3542 188.194 19.5625C189.058 18.7708 190.058 18.1667 191.194 17.75C192.329 17.3333 193.522 17.125 194.772 17.125C195.876 17.125 196.886 17.2917 197.803 17.625C198.72 17.9479 199.506 18.4323 200.162 19.0781C200.829 19.7135 201.345 20.5052 201.709 21.4531C202.074 22.401 202.256 23.4896 202.256 24.7188C202.256 25.1875 202.235 25.5833 202.194 25.9062C202.152 26.2292 202.11 26.4792 202.069 26.6562H191.756C191.756 27.3333 191.871 27.901 192.1 28.3594C192.34 28.8177 192.678 29.1927 193.116 29.4844C193.553 29.7656 194.079 29.9688 194.694 30.0938C195.319 30.2188 196.017 30.2812 196.787 30.2812C197.423 30.2812 198.142 30.2344 198.944 30.1406C199.746 30.0469 200.537 29.875 201.319 29.625V32.1562ZM196.631 24.7188C196.631 24.0312 196.574 23.4427 196.459 22.9531C196.345 22.4531 196.183 22.0469 195.975 21.7344C195.777 21.4115 195.527 21.1771 195.225 21.0312C194.933 20.8854 194.61 20.8125 194.256 20.8125C193.475 20.8125 192.86 21.1406 192.412 21.7969C191.975 22.4427 191.756 23.4167 191.756 24.7188H196.631Z" fill="white"/>
<path d="M29.877 0.479492C33.0964 1.11986 36.1593 2.38934 38.8887 4.21289L37.5 6.29199C38.7166 7.10485 39.8602 8.03984 40.9102 9.08984C41.9602 10.1398 42.8952 11.2834 43.708 12.5L43.8926 12.376L44.6357 13.6631L44.4854 13.75C44.978 14.6033 45.4125 15.4852 45.7871 16.3896L48.0967 15.4326C48.1919 15.6625 48.2827 15.8943 48.3711 16.127C48.394 16.1873 48.416 16.248 48.4385 16.3086C48.5017 16.4791 48.5626 16.6504 48.6221 16.8223C48.6496 16.9017 48.6774 16.9809 48.7041 17.0605C48.8563 17.5148 48.9951 17.9736 49.1211 18.4365C49.1415 18.5117 49.1619 18.5868 49.1816 18.6621C49.2264 18.8328 49.2684 19.0041 49.3096 19.1758C49.3274 19.2503 49.3461 19.3247 49.3633 19.3994C49.4185 19.6395 49.4714 19.8802 49.5195 20.1221L47.0674 20.6104C47.1648 21.1003 47.2457 21.5945 47.3105 22.0918C47.3282 22.2276 47.3422 22.3638 47.3574 22.5H46.25V27.5H47.3574C47.3411 27.6456 47.3267 27.7914 47.3076 27.9365L49.7852 28.2617C49.5001 30.4282 48.9319 32.5476 48.0957 34.5664L45.7871 33.6104C45.5062 34.2886 45.1913 34.9541 44.8438 35.6045L44.4854 36.25C43.9927 37.1033 43.4465 37.9207 42.8506 38.6973L44.834 40.2188C43.5039 41.9522 41.9522 43.5039 40.2188 44.834L38.6973 42.8506C37.9206 43.4465 37.1033 43.9927 36.25 44.4854C35.3967 44.978 34.5148 45.4125 33.6104 45.7871L34.5664 48.0957C32.5476 48.9319 30.4282 49.5001 28.2617 49.7852L27.9365 47.3076C26.9661 47.4354 25.9852 47.5 25 47.5C24.0148 47.5 23.0339 47.4354 22.0635 47.3076L21.7373 49.7852C19.5709 49.5 17.4514 48.932 15.4326 48.0957L16.3896 45.7871C15.4852 45.4125 14.6033 44.978 13.75 44.4854C12.8967 43.9927 12.0793 43.4465 11.3027 42.8506L9.78125 44.834H9.78027C8.04692 43.5039 6.49505 41.9522 5.16504 40.2188L7.14941 38.6973C6.55349 37.9206 6.00729 37.1033 5.51465 36.25L5.15625 35.6045C4.80868 34.9541 4.49385 34.2886 4.21289 33.6104L1.90332 34.5664C1.06719 32.5477 0.498952 30.4281 0.213867 28.2617L2.69238 27.9365C2.67327 27.7914 2.65886 27.6456 2.64258 27.5H3.75V22.5H2.64258C2.6578 22.3638 2.67175 22.2276 2.68945 22.0918C2.75426 21.5945 2.83515 21.1003 2.93262 20.6104L0.479492 20.1221C0.527614 19.8802 0.580558 19.6395 0.635742 19.3994C0.652918 19.3247 0.671592 19.2503 0.689453 19.1758C0.730606 19.004 0.77361 18.8328 0.818359 18.6621C0.838078 18.5869 0.857509 18.5116 0.87793 18.4365C1.00389 17.9737 1.14277 17.5148 1.29492 17.0605C1.3216 16.9809 1.34947 16.9017 1.37695 16.8223C1.43645 16.6504 1.49733 16.4791 1.56055 16.3086C1.583 16.248 1.60501 16.1873 1.62793 16.127C1.71631 15.8942 1.80803 15.6627 1.90332 15.4326L4.21289 16.3896C4.58751 15.4852 5.022 14.6033 5.51465 13.75L5.36328 13.6631L6.10645 12.376L6.29199 12.5C7.10485 11.2834 8.03984 10.1398 9.08984 9.08984C10.1398 8.03984 11.2834 7.10485 12.5 6.29199L11.1104 4.21289C13.8396 2.38927 16.9027 1.11997 20.1221 0.479492L20.6104 2.93262C22.0454 2.64716 23.5151 2.5 25 2.5C26.4849 2.5 27.9546 2.64716 29.3896 2.93262L29.877 0.479492ZM25 12.5C24.1753 12.5 23.3589 12.5816 22.5615 12.7402L23.0488 15.1924C21.761 15.4486 20.5351 15.955 19.4434 16.6846L18.0557 14.6064C17.3796 15.0581 16.7443 15.578 16.1611 16.1611C15.578 16.7443 15.0581 17.3796 14.6064 18.0557L16.6846 19.4434C15.955 20.5351 15.4486 21.761 15.1924 23.0488L15 23.0098V22.5H11.25V23.1895L9.44141 22.9521L6.96289 22.625C6.85957 23.4098 6.80762 24.2033 6.80762 25C6.80762 25.7967 6.85957 26.5902 6.96289 27.375L9.44141 27.0479V27.0469C9.62031 28.4067 9.97616 29.7377 10.501 31.0049L8.19238 31.9619C8.4953 32.6932 8.84679 33.4068 9.24512 34.0967C9.64336 34.7864 10.0847 35.4474 10.5664 36.0752L12.5498 34.5527V34.5518C13.3848 35.6401 14.359 36.6141 15.4473 37.4492V37.4502L13.9248 39.4336C14.5526 39.9153 15.2136 40.3566 15.9033 40.7549C16.5932 41.1532 17.3068 41.5047 18.0381 41.8076L18.9941 39.498C20.2614 40.023 21.5922 40.3786 22.9521 40.5576V40.5586L22.625 43.0371C23.4098 43.1404 24.2033 43.1924 25 43.1924C25.7967 43.1924 26.5902 43.1404 27.375 43.0371L27.0479 40.5586L27.0469 40.5576C28.4068 40.3787 29.7376 40.0229 31.0049 39.498L31.9619 41.8076C32.5103 41.5805 33.0484 41.3259 33.5742 41.0449L34.0967 40.7549C34.7864 40.3566 35.4474 39.9153 36.0752 39.4336L34.5527 37.4502L34.5518 37.4492C35.6401 36.6142 36.6142 35.6401 37.4492 34.5518L37.4502 34.5527L39.4336 36.0752C39.7949 35.6043 40.1334 35.1146 40.4482 34.6084L40.7549 34.0967C41.1532 33.4068 41.5047 32.6932 41.8076 31.9619L39.498 31.0049C40.0229 29.7376 40.3787 28.4068 40.5576 27.0469L40.5586 27.0479L43.0371 27.375C43.1146 26.7864 43.1631 26.1927 43.1826 25.5967L43.1924 25C43.1924 24.2033 43.1404 23.4098 43.0371 22.625L40.5586 22.9521L38.75 23.1895V22.5H35V23.0098L34.8066 23.0488C34.5504 21.7609 34.0441 20.5352 33.3145 19.4434L35.3936 18.0557C34.9419 17.3796 34.422 16.7443 33.8389 16.1611L33.6182 15.9453C33.0966 15.4489 32.5359 15.0017 31.9443 14.6064L30.5557 16.6846C29.4638 15.9551 28.2381 15.4485 26.9502 15.1924H26.9512L27.4385 12.7402C26.6411 12.5816 25.8247 12.5 25 12.5ZM9.39453 15.9893L9.24512 15.9033C8.84679 16.5932 8.4953 17.3068 8.19238 18.0381L8.20801 18.0439L8.14453 18.1553L10.1602 19.3184L10.376 18.9424L10.502 18.9951L12.8115 19.9512C12.9762 19.5536 13.1605 19.1634 13.3643 18.7822L13.5752 18.4033L14.8252 16.2383L12.6602 14.9883L10.6445 13.8252L9.39453 15.9893ZM37.3398 14.9883L35.1748 16.2383L36.4248 18.4033C36.7136 18.9036 36.9688 19.4209 37.1885 19.9512L39.498 18.9951L39.623 18.9424L39.8398 19.3184L41.8555 18.1553L41.791 18.0439L41.8076 18.0381C41.5047 17.3068 41.1532 16.5932 40.7549 15.9033L40.6045 15.9893L39.3555 13.8252L37.3398 14.9883Z" stroke="white" stroke-width="5" stroke-dasharray="27 27"/>
</svg>
